<?xml version="1.0" encoding="UTF-8"?>
<svg version="1.1" xmlns="http://www.w3.org/2000/svg" width="3000" height="3000">
<path d="M0 0 C1.51975182 -0.01062721 1.51975182 -0.01062721 3.07020569 -0.02146912 C4.17102478 -0.0189917 5.27184387 -0.01651428 6.40602112 -0.01396179 C8.15828758 -0.02162819 8.15828758 -0.02162819 9.94595337 -0.02944946 C13.81233331 -0.04336038 17.67853512 -0.04238653 21.54493713 -0.04008484 C23.55810075 -0.0423953 25.57126 -0.04589945 27.58442169 -0.04949158 C33.92080625 -0.06058339 40.25713155 -0.06102841 46.59352112 -0.05497742 C53.09802611 -0.04896035 59.60231355 -0.06119129 66.10678142 -0.08254749 C71.71301336 -0.10026775 77.31917675 -0.10614789 82.9254356 -0.10290974 C86.26373299 -0.10111054 89.60175343 -0.10493832 92.94004631 -0.11762428 C130.67910384 -0.24335921 130.67910384 -0.24335921 142.97071838 10.02241516 C161.86128098 29.24246432 165.60151697 62.50519407 171.86830139 87.60145569 C173.7453352 95.10841253 175.63752074 102.61157967 177.52638626 110.11556625 C178.24974684 112.99004731 178.97243381 115.86469714 179.6950531 118.73936462 C182.5803029 130.21152554 185.49150324 141.67659036 188.44337463 153.13179016 C188.71608216 154.19014667 188.71608216 154.19014667 188.99429893 155.26988411 C189.91237379 158.83183392 190.83121255 162.39358622 191.75041199 165.95524597 C200.73998292 200.79008861 209.53610212 235.67294504 218.31785583 270.5606842 C225.93264239 300.81133928 233.5667131 331.05584558 241.36134338 361.26069641 C249.8092835 393.99717804 258.06680621 426.78096581 266.31947327 459.56715393 C274.28088371 491.19494618 282.27298161 522.81336985 290.42817688 554.39176941 C295.66508308 574.67392804 300.81695888 594.97684392 305.92734051 615.2912488 C306.43002591 617.28937369 306.93283881 619.28746645 307.43569183 621.28554916 C310.61977234 633.93773327 313.80229522 646.59030212 316.97396195 659.24560457 C318.38091707 664.85892107 319.791216 670.4713934 321.20258713 676.083601 C321.7907084 678.42510955 322.37754289 680.76694171 322.96306229 683.10910225 C323.76796276 686.32848522 324.57708022 689.54677955 325.38722229 692.7648468 C325.62499641 693.72051544 325.86277054 694.67618408 326.10774994 695.66081238 C326.3256292 696.52268661 326.54350845 697.38456085 326.76799011 698.27255249 C327.05037505 699.39907526 327.05037505 699.39907526 327.33846474 700.54835606 C327.71917945 702.27512303 327.71917945 702.27512303 328.86134338 703.26069641 C344.23813199 638.38940722 359.59031283 573.51248805 374.82160378 508.60686493 C375.30107744 506.56367641 375.78057123 504.52049262 376.2600708 502.47731018 C377.87646241 495.58972375 379.49277174 488.70211802 381.10902405 481.8144989 C381.26964577 481.13001376 381.43026749 480.44552861 381.59575653 479.74030149 C382.4071675 476.28247229 383.21855551 472.8246377 384.02990723 469.36679459 C391.40132782 437.95123558 398.78547159 406.53867361 406.17579699 375.1275568 C406.67363132 373.01159776 407.17144777 370.89563451 407.66926193 368.77967072 C415.40381386 335.90438919 423.14799309 303.03139125 430.90901637 270.16234827 C431.45121596 267.86604306 431.99338745 265.56973122 432.53555489 263.27341843 C436.12457025 248.07267627 439.7149383 232.87225573 443.30991459 217.67292213 C445.06731383 210.24270388 446.82393049 202.81230072 448.58009338 195.38179016 C448.75255545 194.65213248 448.92501752 193.92247479 449.10270572 193.17070627 C453.94121792 172.69820984 458.74712901 152.21835498 463.51858163 131.73012573 C464.67112945 126.78153087 465.82541454 121.8333441 466.98091125 116.88543701 C467.22076787 115.85827573 467.22076787 115.85827573 467.46547008 114.81036371 C468.10262557 112.08191135 468.73981551 109.35346706 469.37721586 106.62507188 C471.34641038 98.19549245 473.3060821 89.76379804 475.25610352 81.32975674 C476.35483399 76.58749583 477.46237094 71.8473232 478.57226562 67.10766411 C479.07734056 64.94245639 479.57873728 62.77638644 480.07595825 60.60936165 C483.72909372 44.69807026 487.50035668 28.92340822 496.86134338 15.26069641 C497.43884338 14.35319641 498.01634338 13.44569641 498.61134338 12.51069641 C505.07327665 6.04876314 513.05895241 3.0706555 521.86134338 1.26069641 C523.09860168 1.00138336 523.09860168 1.00138336 524.3608551 0.73683167 C529.08847445 0.09378245 533.74379466 0.10492149 538.50978088 0.0995636 C540.10133247 0.09211624 540.10133247 0.09211624 541.72503662 0.08451843 C545.22881221 0.06993762 548.73254246 0.06310018 552.23634338 0.05757141 C554.68287659 0.05181487 557.12940979 0.04605721 559.57594299 0.04029846 C564.70704864 0.02979886 569.83813867 0.02394995 574.96925354 0.02046204 C581.51445019 0.01499158 588.05943732 -0.00901006 594.60456848 -0.03750992 C599.66121504 -0.05622392 604.71781211 -0.06134664 609.77449036 -0.06287384 C612.18559408 -0.06588313 614.59669729 -0.07385273 617.00776672 -0.08705902 C653.17451825 -0.27095375 653.17451825 -0.27095375 666.91603088 10.93647766 C674.72288427 19.03825662 678.69677248 29.9037845 681.66847229 40.54023743 C682.05125304 41.89774156 682.05125304 41.89774156 682.44176674 43.28267002 C685.77408633 55.30206057 688.56063431 67.45411182 691.38478088 79.60054016 C692.00390339 82.24853619 692.62461476 84.89615911 693.24528503 87.54379272 C694.56258531 93.16653236 695.87633109 98.79009198 697.18751526 104.41426086 C699.2688271 113.34152279 701.35756656 122.26703884 703.44728088 131.19233704 C704.15552553 134.21768457 704.86370752 137.24304676 705.57185364 140.26841736 C705.7471637 141.01737514 705.92247376 141.76633292 706.10309625 142.5379864 C707.34464144 147.84260262 708.58515892 153.14745854 709.82514954 158.45243835 C715.34391688 182.06251514 720.88907453 205.66630368 726.44932556 229.26664734 C728.85803911 239.49079233 731.26399543 249.71558636 733.66993713 259.94038391 C734.03637675 261.49761327 734.03637675 261.49761327 734.41021919 263.0863018 C741.09236529 291.48393977 747.76149855 319.88463544 754.43062925 348.2853322 C754.92355314 350.38446039 755.41648212 352.48358739 755.90941238 354.58271408 C761.55443075 378.62187981 767.19881357 402.66119476 772.84291077 426.70057678 C776.92643139 444.09313876 781.01009052 461.48566819 785.09413767 478.87810653 C785.90097073 482.31411066 786.70779277 485.75011737 787.5145874 489.18613052 C794.73530889 519.93803282 801.95983703 550.6890322 809.19723773 581.43701386 C809.68025875 583.48913568 810.16326074 585.54126197 810.6462574 587.59338951 C813.68526969 600.50529384 816.72471773 613.41709521 819.76608753 626.32844448 C826.51052089 654.96191525 833.21806557 683.60357767 839.86134338 712.26069641 C843.54477287 700.92317371 846.4743107 689.41577787 849.41993713 677.87007141 C849.96140849 675.75760918 850.50318445 673.64522501 851.04524231 671.53291321 C852.19848039 667.03680482 853.34990655 662.54023809 854.49986267 658.04328918 C857.24706091 647.30098066 860.00402112 636.56117533 862.75992775 625.82109833 C863.691215 622.19138895 864.62214503 618.56158807 865.55303955 614.93177795 C870.64371579 595.0859467 875.77232943 575.25013326 880.92312241 555.41983032 C882.82663323 548.09098465 884.72881391 540.76179354 886.63087463 533.43257141 C886.94662539 532.21597462 886.94662539 532.21597462 887.26875496 530.97480011 C892.77882635 509.74215773 898.25753736 488.50142352 903.73634338 467.26069641 C904.24327847 465.2954451 904.75021613 463.33019444 905.25715637 461.36494446 C905.50807667 460.39220078 905.75899696 459.41945709 906.0175209 458.41723633 C907.03112049 454.48781714 908.04472095 450.55839817 909.05833435 446.62898254 C909.56525834 444.663815 910.07217566 442.69864572 910.5790863 440.73347473 C916.18762608 418.99089973 921.8047563 397.25054763 927.42384338 375.51069641 C927.90103739 373.66442383 928.37823058 371.81815105 928.85542297 369.97187805 C930.76172789 362.59637241 932.6680849 355.22088024 934.57453918 347.84541321 C937.9192405 334.90581982 941.26350368 321.96611326 944.60743713 309.02632141 C944.96339305 307.648904 944.96339305 307.648904 945.32653999 306.24365997 C946.52531145 301.60484978 947.72407553 296.96603768 948.9228363 292.32722473 C951.07940113 283.98203722 953.23603133 275.6368666 955.39265633 267.29169464 C956.59055466 262.65636258 957.78844881 258.02102944 958.98634338 253.38569641 C959.46551003 251.53152974 959.9446767 249.67736307 960.42384338 247.82319641 C960.77962463 246.44647766 960.77962463 246.44647766 961.14259338 245.04194641 C961.86134338 242.26069641 962.58009338 239.47944641 963.29884338 236.69819641 C963.53603592 235.78036377 963.77322845 234.86253113 964.01760864 233.91688538 C964.49672316 232.06292183 964.97583896 230.20895861 965.45495605 228.35499573 C966.65368114 223.71647408 967.85238381 219.07794664 969.05104065 214.43940735 C971.19761385 206.1327284 973.34433361 197.8260875 975.49191284 189.51966858 C976.6776691 184.93337367 977.86329109 180.34704405 979.04884338 175.76069641 C979.28408722 174.85065857 979.51933105 173.94062073 979.76170349 173.00300598 C983.04134523 160.31468454 986.31469304 147.62475258 989.58363342 134.93367004 C991.41657804 127.81770369 993.25121744 120.70217456 995.08621979 113.58673859 C996.33242461 108.75389429 997.57768656 103.92081156 998.8205719 99.08711243 C1007.61531849 64.88721292 1007.61531849 64.88721292 1011.79884338 49.78413391 C1012.06322205 48.82084167 1012.32760071 47.85754944 1012.59999084 46.86506653 C1016.49519959 33.01745818 1022.26548259 15.78215825 1034.70118713 7.46772766 C1045.44957775 1.46184574 1056.45503486 -0.04036814 1068.60987854 -0.02983093 C1069.73965622 -0.03654816 1070.8694339 -0.04326538 1072.03344727 -0.05018616 C1075.73914578 -0.06906493 1079.44466239 -0.07308447 1083.15040588 -0.07524109 C1085.74011813 -0.08167326 1088.32982966 -0.08840193 1090.91954041 -0.09541321 C1096.33440651 -0.10735862 1101.74920111 -0.11118265 1107.16407776 -0.10990906 C1113.40700035 -0.10870569 1119.64957836 -0.12986183 1125.89241374 -0.16139638 C1131.92378293 -0.19076671 1137.95496566 -0.19788358 1143.98641586 -0.19668961 C1146.5420358 -0.19904616 1149.09765844 -0.20787267 1151.65323257 -0.22335434 C1155.22631178 -0.24298397 1158.79850332 -0.23718841 1162.37159729 -0.22514343 C1163.42116104 -0.23638245 1164.47072479 -0.24762146 1165.55209351 -0.25920105 C1172.91471372 -0.19624005 1178.0784739 1.1277794 1183.88478088 5.93647766 C1190.43914402 13.87369776 1190.58972601 22.28545479 1189.86134338 32.26069641 C1188.33346782 42.99516959 1185.59476374 53.22589236 1182.31056213 63.54975891 C1181.85911507 64.99255283 1181.4084763 66.43559987 1180.95857239 67.87887573 C1179.75089204 71.74520543 1178.5321025 75.60794757 1177.31115341 79.47010422 C1176.01388179 83.58087161 1174.72744062 87.69502736 1173.43971252 91.80879211 C1170.77428642 100.31749102 1168.09684123 108.8223699 1165.41627502 117.3263092 C1163.24167189 124.22555033 1161.07293149 131.12663336 1158.90408897 138.02768707 C1157.76930764 141.63844564 1156.63432943 145.24914231 1155.49928284 148.8598175 C1155.27649816 149.56854256 1155.05371347 150.27726761 1154.82417774 151.00746918 C1153.46724526 155.32366853 1152.10910379 159.63948555 1150.75014591 163.95504761 C1143.82599591 185.94505676 1136.98278127 207.95937607 1130.1736412 229.98524094 C1122.90620519 253.49261013 1115.56685868 276.976325 1108.17339706 300.44434738 C1101.0254393 323.13416259 1093.94812158 345.84480027 1086.92384338 368.57319641 C1079.39598455 392.93087009 1071.78782031 417.26195331 1064.11134338 441.57319641 C1057.35393653 462.97488383 1050.62378793 484.38391133 1043.98634338 505.82319641 C1036.95858356 528.52163436 1029.88949774 551.20683786 1022.79884338 573.88569641 C1022.26599351 575.59010228 1021.73314643 577.29450902 1021.20030212 578.99891663 C1018.50179635 587.63041534 1015.80280643 596.26176261 1013.10353088 604.89302063 C1000.38389767 645.5656525 987.66742051 686.23928412 974.9851675 726.92358971 C973.49576149 731.70120228 972.00512053 736.47842729 970.51349163 741.2553463 C965.41082905 757.59816888 960.33514006 773.94863533 955.31883621 790.31819153 C953.75718254 795.41007464 952.18978149 800.50019219 950.62232018 805.59029007 C949.38188358 809.62068698 948.14569562 813.6522803 946.9198761 817.68714905 C933.28520477 862.55059626 933.28520477 862.55059626 922.86134338 873.26069641 C922.03183167 874.11341125 922.03183167 874.11341125 921.18556213 874.98335266 C909.78007988 885.65468893 893.41870647 886.41334651 878.60670471 886.40596008 C877.6232608 886.4093187 876.63981689 886.41267731 875.62657166 886.4161377 C872.3988262 886.42557955 869.17113301 886.4275875 865.94337463 886.42866516 C863.68049092 886.43188281 861.41760741 886.43524726 859.15472412 886.43875122 C854.41817239 886.44472586 849.68163885 886.44659287 844.94508362 886.44599915 C838.90783052 886.44589771 832.87069551 886.45953869 826.83347034 886.47677135 C822.16028316 886.48794986 817.48712397 886.48991655 812.81392479 886.48938942 C810.58983135 886.49056116 808.365737 886.49493709 806.14165688 886.50272179 C766.60380267 886.62814261 766.60380267 886.62814261 751.86134338 874.26069641 C742.61832261 865.06158548 738.73195572 851.55558775 735.52516174 839.30342102 C735.22312552 838.16451133 734.92108931 837.02560163 734.60990047 835.85217953 C731.4690486 823.92497828 728.55412091 811.94528927 725.67774963 799.95210266 C725.10393912 797.57126358 724.52980235 795.19050311 723.95536804 792.80981445 C722.5827825 787.11824226 721.21319246 781.42595585 719.84496641 775.73333424 C718.07547323 768.37219656 716.30110874 761.01223431 714.52662659 753.65229797 C713.86857907 750.92277822 713.21054938 748.19325417 712.55252075 745.46372986 C712.30771635 744.44830949 712.30771635 744.44830949 712.05796641 743.41237557 C710.90056476 738.61139861 709.74381052 733.81026592 708.58728027 729.00907898 C704.55993076 712.2913454 700.51997013 695.57671591 696.46290588 678.86616516 C696.21379896 677.84005693 695.96469204 676.81394871 695.70803642 675.75674629 C694.47504355 670.6781662 693.24178275 665.5996512 692.00840759 660.52116394 C683.40287301 625.08568042 674.86483762 589.63454056 666.3716011 554.17198563 C657.90593385 518.8279372 649.34521467 483.50762518 640.73634338 448.19819641 C640.44018379 446.98347656 640.1440242 445.76875671 639.83889008 444.51722717 C639.24206721 442.06935158 638.64523813 439.62147751 638.04840279 437.17360497 C636.57449155 431.12844102 635.10067506 425.08325398 633.62696838 419.03804016 C633.33843868 417.85452343 633.04990898 416.6710067 632.75263596 415.45162582 C626.9696458 391.72796662 621.21974295 367.99638412 615.48634338 344.26069641 C615.15773252 342.90040943 615.15773252 342.90040943 614.82248306 341.51264191 C612.4135275 331.54068113 610.00557355 321.56847872 607.59815979 311.59614563 C603.36803533 294.07374711 599.13407945 276.55227416 594.89917374 259.03103065 C593.43952303 252.99185145 591.98036519 246.95255347 590.52165127 240.91314793 C589.6233539 237.19437669 588.7246649 233.47570017 587.82587624 229.75704765 C587.41159636 228.04265708 586.99747572 226.32822803 586.58353233 224.61375618 C584.37976514 215.48660937 582.1594162 206.36468857 579.86134338 197.26069641 C579.64710724 198.15887085 579.43287109 199.05704529 579.21214294 199.98243713 C568.89790116 243.22366046 558.57770858 286.46345096 548.23634338 329.69819641 C548.01436028 330.62625595 547.79237717 331.55431549 547.5636673 332.51049805 C547.3401786 333.44485184 547.11668991 334.37920563 546.88642883 335.34187317 C545.50042751 341.13642038 544.11445782 346.93097516 542.72853088 352.72554016 C542.4952647 353.70082294 542.26199852 354.67610573 542.02166367 355.68094254 C536.0860515 380.49826544 530.15679182 405.317106 524.22734451 430.1359024 C513.44310718 475.27514939 502.65326259 520.41305187 491.85801697 565.54966736 C488.23890622 580.68174596 484.6202129 595.81392436 481.00172424 610.94615173 C480.54168201 612.8700104 480.08163969 614.79386904 479.62159729 616.71772766 C479.3937064 617.67074957 479.16581551 618.62377148 478.93101883 619.60567284 C477.32634957 626.31622517 475.72155469 633.02674746 474.11671448 639.73725891 C473.20215296 643.56147509 472.28760275 647.38569398 471.37306213 651.20991516 C471.1465799 652.15696697 470.92009766 653.10401878 470.68675232 654.07976913 C468.14470599 664.70971209 465.60323251 675.33979166 463.06300354 685.97016907 C462.83147772 686.93905375 462.5999519 687.90793842 462.36141014 688.90618324 C461.42574938 692.82177941 460.49010505 696.73737949 459.55456161 700.65300369 C457.01742898 711.27186574 454.47884496 721.89037583 451.93556213 732.50776672 C451.25694943 735.34111505 450.5783637 738.17446984 449.89980698 741.00783157 C449.45044115 742.88419 449.00104195 744.76054043 448.55160904 746.63688278 C445.84420053 757.94211458 443.14925541 769.25019266 440.47290707 780.56281948 C438.72871806 787.93524548 436.9782644 795.30616389 435.22327518 802.67602634 C434.00594364 807.79031726 432.79723069 812.90653505 431.59544086 818.02449894 C430.85497538 821.16784941 430.10574752 824.30906444 429.35415077 827.44976997 C429.01412574 828.87820629 428.67756009 830.30747221 428.34508324 831.73768425 C426.59254402 839.26806904 424.52335926 846.60508967 421.82814026 853.85346985 C421.58623711 854.5051627 421.34433395 855.15685555 421.0951004 855.82829666 C416.7339485 867.15398866 410.29936424 876.20376811 399.15821838 881.38569641 C388.28237026 885.52887665 377.12756825 886.41170529 365.60670471 886.40596008 C364.6232608 886.4093187 363.63981689 886.41267731 362.62657166 886.4161377 C359.3988262 886.42557955 356.17113301 886.4275875 352.94337463 886.42866516 C350.68049092 886.43188281 348.41760741 886.43524726 346.15472412 886.43875122 C341.41817239 886.44472586 336.68163885 886.44659287 331.94508362 886.44599915 C325.90783052 886.44589771 319.87069551 886.45953869 313.83347034 886.47677135 C309.16028316 886.48794986 304.48712397 886.48991655 299.81392479 886.48938942 C297.58983135 886.49056116 295.365737 886.49493709 293.14165688 886.50272179 C253.4991623 886.62847454 253.4991623 886.62847454 239.86134338 874.26069641 C239.3521637 873.80565735 238.84298401 873.35061829 238.31837463 872.88179016 C229.43628589 863.76157571 225.39914334 850.41669403 221.68165588 838.59272766 C221.10028618 836.76295883 221.10028618 836.76295883 220.50717163 834.89622498 C216.27236061 821.53417462 212.21401984 808.11763328 208.17024231 794.6967926 C207.09458216 791.12897337 206.01592399 787.56206062 204.93751526 783.99507141 C203.36254905 778.78491385 201.78833327 773.57453083 200.21515083 768.36383438 C197.42169416 759.11164959 194.62198745 749.86137088 191.81837463 740.61225891 C191.6134886 739.93632879 191.40860256 739.26039867 191.19750786 738.56398582 C190.16555348 735.15962816 189.13348712 731.75530447 188.10136414 728.35099792 C186.22460839 722.16063763 184.34872432 715.97001317 182.47282219 709.77939415 C181.84624673 707.71165874 181.21964886 705.64393013 180.5930481 703.57620239 C177.93078114 694.79080634 175.2693217 686.00516592 172.60825539 677.21940613 C170.77614042 671.17061229 168.94379391 665.1218886 167.11134338 659.07319641 C166.9080756 658.40222679 166.70480782 657.73125717 166.4953804 657.03995514 C161.36248638 640.09713382 156.22375917 623.15609564 151.07618713 606.21772766 C150.83059681 605.40959877 150.58500648 604.60146988 150.33197403 603.76885223 C149.07757365 599.64126043 147.82310879 595.51368822 146.56861877 591.38612366 C138.06639196 563.41178497 129.57734411 535.43352114 121.11134338 507.44819641 C120.75307339 506.26392122 120.75307339 506.26392122 120.38756561 505.05572128 C118.48068625 498.75244183 116.57387179 492.44914274 114.6671524 486.1458149 C109.7565391 469.91211699 104.84198908 453.67961388 99.92384338 437.44819641 C99.72287678 436.78491962 99.52191017 436.12164284 99.31485367 435.43826675 C94.24595443 418.709056 89.17054406 401.98183202 84.08790588 385.25679016 C83.84204931 384.44776686 83.59619274 383.63874355 83.34288597 382.80520439 C81.32406293 376.16211804 79.3051169 369.51906906 77.28607559 362.87604904 C69.38831115 336.89071832 61.51043559 310.89944019 53.64838791 284.90328217 C46.32112133 260.67567528 38.97526001 236.45378917 31.61390305 212.23651886 C23.73851338 186.32752118 15.86983239 160.4165041 8.02174377 134.4992218 C7.0638247 131.33584742 6.1054979 128.17259711 5.14674377 125.00947571 C2.04126942 114.76299113 -1.05584397 104.51402353 -4.13865662 94.26069641 C-4.37973648 93.45890835 -4.62081635 92.65712029 -4.86920166 91.83103561 C-6.37897475 86.80724211 -7.8845551 81.7822149 -9.38553429 76.7557869 C-9.86082802 75.16530402 -10.3369926 73.57508105 -10.81412697 71.98514938 C-25.39221913 23.38352673 -25.39221913 23.38352673 -18.13865662 9.26069641 C-13.18317256 3.46857219 -7.74133817 0.01812335 0 0 Z " fill="#FEFEFE" transform="translate(960.1386566162109,625.7393035888672)"/>
<path d="M0 0 C0.9384375 -0.03738281 1.876875 -0.07476563 2.84375 -0.11328125 C12.8576573 1.05286821 21.3804192 5.57124358 29.94104004 10.6512146 C31.74363501 11.72080846 33.55370882 12.77663614 35.36621094 13.8293457 C37.86842952 15.28297071 40.36827815 16.7405427 42.86669922 18.20068359 C48.29238666 21.36325584 53.76809645 24.43617487 59.25 27.5 C60.26900391 28.07008789 61.28800781 28.64017578 62.33789062 29.22753906 C71.41887076 34.29337509 80.55674037 39.25159745 89.7109375 44.18359375 C93.37239548 46.15743372 97.02399911 48.14714386 100.6640625 50.16015625 C115.54508038 58.37909186 130.65403357 66.13205608 145.78804016 73.87106323 C150.81191349 76.44206266 155.82538115 79.03235372 160.83203125 81.63671875 C173.97065356 88.46751065 187.14198366 95.17351841 200.5390625 101.48828125 C204.92536932 103.55649408 209.29145712 105.66382312 213.6484375 107.79296875 C232.44955791 116.97456203 251.40365212 125.76281739 270.5 134.3125 C271.60045654 134.80553619 271.60045654 134.80553619 272.72314453 135.30853271 C329.2760987 160.63941579 386.37280733 184.79898696 444.5 206.3125 C445.95053701 206.85037956 447.40105695 207.38830514 448.8515625 207.92626953 C457.7057496 211.20801888 466.56640183 214.47185869 475.43276978 217.72055054 C479.93312618 219.36966844 484.43125738 221.02459515 488.92697144 222.68632507 C507.87310281 229.68505226 526.93548332 236.25126677 546.12646484 242.54589844 C551.03160039 244.15600646 555.93151561 245.78161638 560.83114624 247.40838623 C628.65872112 269.91449928 697.21540727 289.79878508 766.5 307.3125 C767.58357788 307.58731201 768.66715576 307.86212402 769.78356934 308.14526367 C845.34555216 327.30353791 921.61549353 343.3827115 1402.36270142 398.20535278 C1404.52901876 398.27933837 1406.6951747 398.35815231 1408.86117554 398.44088745 C1438.14827718 399.55521772 1467.44669747 399.50027577 1496.75043917 399.49761099 C1501.62019009 399.49791295 1506.48988473 399.50602785 1511.35961914 399.51831055 C1549.77970077 399.61288959 1588.10872965 398.99944024 1626.5 397.3125 C1627.390751 397.27355495 1628.281502 397.23460991 1629.19924545 397.19448471 C1639.6587048 396.73294662 1650.11104258 396.18113065 1660.5625 395.5625 C1661.99327101 395.47921388 1663.42404712 395.39601523 1664.85482788 395.31289673 C1747.90239046 390.46236244 1830.70615949 381.9816868 2205.5 312.3125 C2206.56869324 312.04779907 2207.63738647 311.78309814 2208.73846436 311.51037598 C2241.50129046 303.3908527 2274.06095837 294.64046205 2306.5 285.3125 C2308.05303833 284.8664743 2308.05303833 284.8664743 2309.63745117 284.41143799 C2355.91739075 271.10806815 2401.92210487 256.92171945 2447.40039062 241.08251953 C2451.79868591 239.55246973 2456.20382965 238.04314017 2460.61100769 236.53889465 C2491.1560651 226.10982795 2521.36871708 214.87869297 2551.5 203.3125 C2552.45364441 202.94707092 2553.40728882 202.58164185 2554.38983154 202.20513916 C2576.35297599 193.78817478 2598.17506603 185.07336381 2619.86816406 175.98168945 C2660.30096789 159.04040327 2660.30096789 159.04040327 2682.5 166.3125 C2694.72491991 171.59289734 2704.26728252 179.90266662 2709.375 192.375 C2712.8755272 204.34386846 2710.78837519 216.34678754 2704.9921875 227.11328125 C2697.00709955 240.539371 2685.04575912 248.54983089 2672.5 257.3125 C2670.89809707 258.43962049 2669.29653374 259.56722379 2667.6953125 260.6953125 C2663.52744572 263.62670235 2659.34762845 266.54062834 2655.16552734 269.45166016 C2652.40282378 271.38034 2649.64819616 273.32015967 2646.89453125 275.26171875 C2634.88659248 283.70649216 2622.7028461 291.7771703 2610.26464844 299.57275391 C2606.46249295 301.96538549 2602.68080189 304.38953811 2598.89746094 306.81176758 C2590.24325805 312.34696951 2581.5405451 317.76889109 2572.70068359 323.00146484 C2570.07046003 324.56839413 2567.45122793 326.15298932 2564.83203125 327.73828125 C2544.06434549 340.29370596 2522.97005931 352.16513547 2501.59130859 363.64550781 C2498.56043592 365.27990985 2495.53921874 366.93097786 2492.51953125 368.5859375 C2460.52856943 386.03147253 2427.81162687 402.50010437 2394.5536499 417.39178467 C2392.22009587 418.43798976 2389.88858581 419.48868074 2387.55712891 420.53955078 C2318.81380159 451.49931849 2248.7358942 478.50163536 2177.23266602 502.39837646 C2174.63012808 503.26896993 2172.02878577 504.14304336 2169.42773438 505.01806641 C2079.55296664 535.202825 1987.01479072 558.21575551 1578.3125 615.5 C1577.63309357 615.53702026 1576.95368713 615.57404053 1576.25369263 615.61218262 C1571.33704311 615.87489797 1566.41888848 616.0970077 1561.5 616.3125 C1560.58631433 616.35302994 1559.67262865 616.39355988 1558.73125553 616.43531799 C1540.80380985 617.21348483 1522.9077897 617.47543237 1504.96484375 617.48046875 C1503.59302821 617.48190111 1502.22121283 617.48349896 1500.84939766 617.48525429 C1493.64642046 617.49443089 1486.44346136 617.49860019 1479.24047852 617.49780273 C1473.41297624 617.49727376 1467.5855417 617.5042553 1461.75805664 617.51831055 C1425.625642 617.60340219 1389.59458652 617.19531189 1353.5 615.3125 C1351.99671955 615.23592953 1350.49343411 615.15945679 1348.99014282 615.08309937 C1340.46788966 614.64525334 1331.95212018 614.12892355 1323.4375 613.5625 C1321.55109802 613.43894638 1321.55109802 613.43894638 1319.62658691 613.31289673 C1220.67540705 606.77695677 1122.25753756 593.76545025 754.9519043 502.15301514 C752.34424115 501.25910572 749.73561664 500.36803633 747.12695312 499.47705078 C708.1632408 486.15277772 669.6288683 471.86629327 631.5 456.3125 C630.84279968 456.04459656 630.18559937 455.77669312 629.50848389 455.50067139 C605.95840465 445.89449675 582.66100435 435.75712272 559.43359375 425.3984375 C554.74374924 423.30771186 550.04811769 421.23080485 545.34765625 419.1640625 C534.66369673 414.45934829 524.04211246 409.72338153 513.6484375 404.40625 C508.48156824 401.77286299 503.23555126 399.30558058 498 396.8125 C477.15927431 386.85540738 456.43565465 376.59613059 436.07421875 365.68945312 C433.03220452 364.06227556 429.98471295 362.44554533 426.9375 360.828125 C413.98335184 353.94125864 401.12599006 346.90950096 388.37890625 339.64453125 C384.1115204 337.21594362 379.82566337 334.82251689 375.52734375 332.44921875 C374.93209396 332.1202359 374.33684418 331.79125305 373.72355652 331.45230103 C370.84180217 329.86017074 367.95833781 328.27135782 365.07202148 326.6875 C358.40864416 323.00835329 351.8938027 319.14517163 345.42919922 315.12719727 C341.86284318 312.91776866 338.25284818 310.79365417 334.625 308.6875 C317.36383591 298.58877763 300.35457943 288.07429611 283.5 277.3125 C282.88930664 276.92288086 282.27861328 276.53326172 281.64941406 276.13183594 C277.59055346 273.53937292 273.54303949 270.92953759 269.5 268.3125 C268.74074219 267.82136719 267.98148437 267.33023438 267.19921875 266.82421875 C250.57812418 256.06631344 234.12157116 245.10058116 217.80175781 233.89111328 C215.65966499 232.42200295 213.51416454 230.9580532 211.3671875 229.49609375 C202.74215065 223.61272705 194.2488376 217.56421733 185.80078125 211.4296875 C182.07099073 208.72145294 178.32061437 206.04370204 174.5625 203.375 C152.81438232 187.8910783 131.55421946 171.72298508 110.5 155.3125 C109.82066406 154.78527344 109.14132813 154.25804687 108.44140625 153.71484375 C96.77772001 144.66211112 85.20941581 135.51721439 73.83203125 126.10546875 C69.90652459 122.87103252 65.97921841 119.65672178 61.91796875 116.59375 C61.01860596 115.91397095 61.01860596 115.91397095 60.10107422 115.22045898 C58.92606248 114.33655376 57.74680088 113.45826463 56.56298828 112.58618164 C55.17275705 111.54107774 53.83108371 110.43196468 52.5 109.3125 C52.5 108.6525 52.5 107.9925 52.5 107.3125 C51.95988281 107.08175781 51.41976562 106.85101562 50.86328125 106.61328125 C47.81581969 104.93591811 45.30400108 102.76556053 42.6875 100.5 C42.12345459 100.01716553 41.55940918 99.53433105 40.97827148 99.03686523 C39.14780993 97.46707464 37.32321187 95.89070282 35.5 94.3125 C34.89124023 93.78624023 34.28248047 93.25998047 33.65527344 92.71777344 C31.15637148 90.55645401 28.65891751 88.39350711 26.16552734 86.22583008 C22.48523101 83.02649769 18.78813544 79.84849582 15.07446289 76.68798828 C9.49058167 71.93275287 4.00354889 67.09632337 -1.37475586 62.109375 C-4.11534314 59.5692056 -6.89786986 57.10126773 -9.75 54.6875 C-18.08095349 47.38055954 -24.64420195 40.21971745 -25.875 28.84765625 C-26.18075461 19.89477921 -24.90780072 14.36501978 -19.1875 7.5625 C-13.25114312 2.5925268 -7.74729852 0.19784768 0 0 Z " fill="#FE9900" transform="translate(25.5,1782.6875)"/>
<path d="M0 0 C1.16967788 -0.00424107 1.16967788 -0.00424107 2.36298561 -0.00856781 C6.50883933 -0.02344555 10.65465942 -0.03274075 14.80053711 -0.03710938 C18.13821644 -0.04144454 21.47563004 -0.05515776 24.81323242 -0.078125 C75.33708865 -0.41843379 125.61164657 4.55592517 174.17578125 19.203125 C175.0354248 19.46174316 175.89506836 19.72036133 176.78076172 19.98681641 C222.08639568 33.84550893 266.987888 58.89640405 296.93359375 96.40625 C298.37973963 98.21015322 299.85216218 99.99344824 301.35546875 101.75 C343.62364934 151.3887886 360.15335034 221.58883912 364.17578125 285.203125 C364.25772043 286.41177562 364.33965961 287.62042624 364.4240818 288.86570263 C365.44724723 305.37461193 365.32966493 321.90273137 365.33241272 338.43545616 C365.33427548 342.91086368 365.34189503 347.3862619 365.34889221 351.86166382 C365.36035008 359.6004048 365.36862974 367.33914367 365.37501144 375.0778904 C365.38541475 387.34122238 365.40599801 399.60452801 365.4281311 411.86784363 C365.43560865 416.07869044 365.44302273 420.28953737 365.45041847 424.50038433 C365.45226904 425.55243089 365.4541196 426.60447745 365.45602625 427.68840421 C365.47690172 439.63137825 365.4957537 451.57435517 365.51367188 463.51733398 C365.51612915 465.15244862 365.51612915 465.15244862 365.51863606 466.82059588 C365.54488786 484.46169444 365.56355448 502.10279507 365.58026378 519.74390487 C365.59776087 537.92548147 365.62668395 556.10701771 365.66515315 574.288562 C365.68838184 585.46345281 365.7025321 596.63827778 365.70448078 607.81319293 C365.70661054 615.4901064 365.71970723 623.16695469 365.74096011 630.84383879 C365.7528347 635.25281143 365.76024622 639.66165486 365.75424767 644.07064247 C365.68285657 704.76693274 379.55017936 754.40386245 407.17578125 808.203125 C408.59884165 810.99159998 410.01422938 813.78381298 411.42578125 816.578125 C412.20695313 818.10566406 412.20695313 818.10566406 413.00390625 819.6640625 C416.45326346 827.13766978 416.60126654 837.306615 414.3046875 845.1953125 C413.1066691 847.71704303 411.78592875 849.92414699 410.17578125 852.203125 C409.71429687 852.8734375 409.2528125 853.54375 408.77734375 854.234375 C398.67578241 867.1561692 380.77447652 875.8321132 367.23828125 884.703125 C364.35623413 886.59538551 361.47470969 888.48843896 358.59339905 890.38182068 C356.72804891 891.60724961 354.86220166 892.83192221 352.99583435 894.05580139 C348.87494942 896.76012414 344.76120528 899.47314448 340.67407227 902.22827148 C339.65228127 902.91614746 339.65228127 902.91614746 338.60984802 903.61791992 C337.38077999 904.44743059 336.1537963 905.28004379 334.92958069 906.11669922 C323.45021498 913.86500736 312.82757248 916.40394595 299.17578125 915.203125 C280.95374727 911.48708367 267.03173838 893.14245348 256.46679688 878.93847656 C255.62571012 877.80790836 254.77833611 876.68198204 253.92382812 875.56152344 C236.59034988 852.83021876 222.60665304 825.356248 211.17578125 799.203125 C206.67696654 802.8756268 202.82454515 806.63633501 199.06640625 811.0546875 C195.63016875 814.95950284 191.88135931 818.55646956 188.17578125 822.203125 C185.43547105 824.92982439 182.71369791 827.67291893 180.01171875 830.4375 C173.88461444 836.67941024 167.73522991 842.64929325 160.859375 848.078125 C158.04911557 850.30342504 155.33638681 852.62223629 152.61328125 854.953125 C88.13711622 908.57276353 4.5171268 935.02168493 -78.73632812 934.59423828 C-82.45609999 934.57809514 -86.17479081 934.5942482 -89.89453125 934.61328125 C-111.60594015 934.63317992 -133.08049337 932.78015048 -154.38671875 928.515625 C-156.31366577 928.13325684 -156.31366577 928.13325684 -158.27954102 927.74316406 C-198.3563834 919.57320885 -237.97683143 902.49522023 -268.82421875 875.203125 C-269.56414062 874.57148437 -270.3040625 873.93984375 -271.06640625 873.2890625 C-289.87946454 856.88306217 -306.04154122 838.66720671 -318.82421875 817.203125 C-319.22205566 816.53764648 -319.61989258 815.87216797 -320.02978516 815.18652344 C-342.91845872 776.48207114 -354.82956132 730.57908081 -355.02734375 685.66796875 C-355.03435806 684.5991597 -355.04137238 683.53035065 -355.04859924 682.42915344 C-355.06600798 678.99960065 -355.07245116 675.57022035 -355.07421875 672.140625 C-355.07489349 670.97084106 -355.07556824 669.80105713 -355.07626343 668.5958252 C-355.06096646 651.93843278 -354.80372054 635.63730612 -351.82421875 619.203125 C-351.65792969 618.23310547 -351.49164063 617.26308594 -351.3203125 616.26367188 C-343.03364316 568.90689117 -322.51620348 524.2145127 -289.48046875 489.046875 C-287.0199803 486.41270501 -284.63747115 483.72599041 -282.26171875 481.015625 C-277.76708535 476.01982009 -272.90780233 471.58982483 -267.82421875 467.203125 C-266.85871094 466.34976562 -265.89320313 465.49640625 -264.8984375 464.6171875 C-209.08966096 415.78561201 -133.7197114 393.05989244 -60.82421875 388.203125 C-59.57366699 388.11699951 -58.32311523 388.03087402 -57.03466797 387.94213867 C-44.6320409 387.14036401 -32.24991537 387.00119945 -19.82421875 387.015625 C-18.77286743 387.01656158 -17.72151611 387.01749817 -16.63830566 387.01846313 C37.22985958 387.12174658 90.48446458 394.10947362 143.36328125 404.078125 C144.54183685 404.29863022 144.54183685 404.29863022 145.74420166 404.52359009 C163.98313843 407.95788332 182.07107055 412.13155964 200.17578125 416.203125 C200.09018412 405.39502111 199.99488258 394.58704603 199.88825417 383.77912807 C199.83898762 378.75683096 199.79267273 373.73454822 199.75390625 368.7121582 C199.53113987 270.88605795 199.53113987 270.88605795 154.17578125 187.203125 C153.50289062 186.45675781 152.83 185.71039062 152.13671875 184.94140625 C116.62715966 146.83845239 54.08441195 141.08497437 5.37109375 139.3515625 C-7.24021109 139.00048304 -19.79534748 139.23375843 -32.38671875 139.953125 C-33.51648132 140.01747742 -33.51648132 140.01747742 -34.66906738 140.08312988 C-103.2598394 144.10772607 -170.59797054 164.38193694 -233.81030273 190.53100586 C-241.72013447 193.79374359 -249.60910146 196.79656601 -257.82421875 199.203125 C-258.61699219 199.44546875 -259.40976562 199.6878125 -260.2265625 199.9375 C-267.7020706 201.93817848 -276.86884144 202.83934223 -284.08203125 199.85546875 C-289.83254728 196.39041422 -292.61204525 191.3972108 -294.82421875 185.203125 C-295.7219649 180.81285503 -295.96030964 176.62687817 -295.98535156 172.15063477 C-295.99279892 171.13207649 -295.99279892 171.13207649 -296.00039673 170.09294128 C-296.01492355 167.86012732 -296.02180757 165.6273846 -296.02734375 163.39453125 C-296.03158482 162.23935155 -296.03158482 162.23935155 -296.03591156 161.06083488 C-296.05087252 156.97813453 -296.06011912 152.89546917 -296.06445312 148.81274414 C-296.06990595 144.63739314 -296.09387473 140.46237348 -296.12242508 136.28712559 C-296.1412474 133.04132726 -296.14626753 129.79560525 -296.147789 126.549757 C-296.15077662 125.01308334 -296.15866969 123.4764097 -296.17197418 121.93979073 C-296.29651307 106.43850579 -295.34666964 91.17007992 -284.38671875 79.203125 C-223.62881447 22.46596439 -96.96238675 3.99810735 0 0 Z M-39.82421875 510.203125 C-41.5093457 510.46851074 -41.5093457 510.46851074 -43.22851562 510.73925781 C-80.21483384 516.79213465 -114.22458488 529.19938833 -141.82421875 555.203125 C-142.4996875 555.81414063 -143.17515625 556.42515625 -143.87109375 557.0546875 C-170.74570057 582.31681791 -180.61765024 621.08780697 -181.80297852 656.69506836 C-182.50173232 695.5621145 -174.63159917 736.25802817 -147.15014648 765.34594727 C-119.58385183 793.43801836 -80.56817342 802.7686425 -42.34912109 803.24658203 C30.34320692 803.07634239 98.86590836 778.83077634 150.72412109 727.67578125 C197.48407628 680.61291466 200.44257988 614.31063566 200.2911377 551.85079956 C200.26633842 544.30148533 200.22756273 536.75230117 200.17578125 529.203125 C155.43682107 518.92889946 110.01300655 511.32551118 64.17578125 508.203125 C62.95391113 508.11627441 61.73204102 508.02942383 60.47314453 507.93994141 C46.63430249 507.02410334 32.79057664 506.95992361 18.92578125 506.953125 C17.06394196 506.95211288 17.06394196 506.95211288 15.16448975 506.95108032 C-3.33629462 506.96703673 -21.515276 507.30130912 -39.82421875 510.203125 Z " fill="#FEFEFE" transform="translate(480.82421875,599.796875)"/>
<path d="M0 0 C1.31766357 -0.00979385 2.63532715 -0.01958771 3.99291992 -0.02967834 C8.25047947 -0.05712532 12.50798608 -0.06837643 16.765625 -0.07421875 C17.85545433 -0.07594463 17.85545433 -0.07594463 18.96730042 -0.07770538 C43.19591752 -0.10435117 67.00380721 0.79033022 91.015625 4.23828125 C92.56898488 4.4549358 94.12237064 4.6714048 95.67578125 4.88769531 C153.40120536 13.03324609 231.5477066 24.38074892 274.015625 67.23828125 C274.71429687 67.9034375 275.41296875 68.56859375 276.1328125 69.25390625 C290.41591209 83.84351013 288.34932413 108.17726518 288.27636719 127.05908203 C288.26561911 130.36509437 288.27633772 133.67056624 288.2890625 136.9765625 C288.31245947 170.94116838 288.31245947 170.94116838 280.515625 179.9765625 C275.50903428 184.83249193 270.45644701 186.05657822 263.62890625 186.3359375 C248.9921566 185.77557189 234.85903969 178.38374607 221.76269531 172.48999023 C210.40364571 167.42481645 198.78987219 163.22701713 187.015625 159.23828125 C186.17338379 158.95114258 185.33114258 158.66400391 184.46337891 158.36816406 C154.87218889 148.37382855 124.08186945 142.34592306 93.078125 138.92578125 C92.34420532 138.8444696 91.61028564 138.76315796 90.85412598 138.67938232 C72.38791279 136.66631261 54.02604742 135.99884035 35.453125 135.98828125 C34.37802673 135.98760651 33.30292847 135.98693176 32.19525146 135.98623657 C-16.99503582 136.03500842 -72.25924388 141.21774915 -111.984375 173.23828125 C-113.00660156 174.05683594 -114.02882813 174.87539063 -115.08203125 175.71875 C-131.49632597 189.9680368 -142.23462791 213.66997019 -143.984375 235.23828125 C-145.7313451 267.64007901 -140.72406507 293.77821377 -118.734375 318.42578125 C-109.05764899 328.85170603 -97.30476077 336.31511508 -84.984375 343.23828125 C-84.31825195 343.61919922 -83.65212891 344.00011719 -82.96582031 344.39257812 C-43.04487225 367.05907768 2.54081884 379.24836481 46.02059937 393.05873108 C61.21533627 397.8867601 76.39401697 402.76504931 91.56860352 407.65600586 C93.31055244 408.21745049 93.31055244 408.21745049 95.08769226 408.79023743 C97.40114167 409.5359402 99.71454745 410.28177834 102.02790833 411.02775574 C108.38113978 413.07454929 114.73910626 415.10534222 121.10316467 417.11820984 C143.51086454 424.20947612 165.47187445 431.8155159 187.015625 441.23828125 C187.95712402 441.64884766 188.89862305 442.05941406 189.86865234 442.48242188 C248.38899611 468.32514656 296.82527247 511.5912547 320.9453125 571.54931641 C326.18179893 585.09648723 330.00999283 599.03868723 333.015625 613.23828125 C333.19641602 614.08471191 333.37720703 614.93114258 333.56347656 615.80322266 C339.32384424 644.58788299 338.29491294 678.43025022 333.015625 707.23828125 C332.85465332 708.16366699 332.69368164 709.08905273 332.52783203 710.04248047 C325.49168957 749.46785893 308.37957831 787.21885187 283.015625 818.23828125 C281.96375 819.57632812 281.96375 819.57632812 280.890625 820.94140625 C224.12630522 892.31419068 134.84338253 924.97434085 46.765625 935.390625 C6.86293202 939.85446689 -33.99965666 939.82437676 -73.984375 936.23828125 C-74.67180786 936.17747375 -75.35924072 936.11666626 -76.06750488 936.05401611 C-147.69508112 929.66448045 -248.63743516 916.51693657 -303.984375 867.23828125 C-304.61472656 866.72394531 -305.24507812 866.20960938 -305.89453125 865.6796875 C-316.32757901 856.48484761 -320.26948762 841.84923186 -321.26696777 828.43910217 C-321.37705246 824.41711365 -321.40265696 820.40574241 -321.3828125 816.3828125 C-321.38484141 814.90459551 -321.38775957 813.42637951 -321.39151001 811.94816589 C-321.39589092 808.8765595 -321.38963837 805.8052178 -321.37548828 802.73364258 C-321.35835298 798.82709982 -321.3682917 794.92117374 -321.38620567 791.01465321 C-321.39712047 787.97144542 -321.39356299 784.9283805 -321.3858223 781.88516808 C-321.38384383 780.44568493 -321.38619515 779.00618813 -321.39326096 777.56672096 C-321.43612252 766.39223757 -321.03129544 755.72671197 -313.5703125 746.828125 C-308.38579282 741.63083557 -301.97838678 741.29957942 -294.984375 741.23828125 C-286.54922877 742.0339662 -279.12765419 744.403598 -271.359375 747.67578125 C-270.28598877 748.11535156 -269.21260254 748.55492187 -268.10668945 749.0078125 C-262.57146482 751.2854378 -257.06465347 753.62688789 -251.56640625 755.9921875 C-186.76468436 783.86213586 -117.05963473 799.28688391 -46.546875 801.80078125 C-45.44794922 801.84396484 -44.34902344 801.88714844 -43.21679688 801.93164062 C15.23684391 804.07641603 86.87027765 799.69557363 133.015625 759.23828125 C133.82 758.57699219 134.624375 757.91570313 135.453125 757.234375 C151.31149692 743.77953757 161.55754496 726.1685432 167.015625 706.23828125 C167.3353125 705.078125 167.655 703.91796875 167.984375 702.72265625 C174.36910694 674.93724873 170.33984109 645.71418679 155.640625 621.36328125 C151.94409815 615.8433555 147.60001765 611.02917807 143.015625 606.23828125 C142.47550781 605.635 141.93539062 605.03171875 141.37890625 604.41015625 C117.18203569 578.32385751 75.645042 565.33233283 43.0234375 554.5078125 C42.38345007 554.29498941 41.74346264 554.08216633 41.08408165 553.86289406 C27.20673715 549.25182419 13.26020183 544.86931346 -0.70626068 540.53619766 C-4.10661789 539.48022558 -7.50565866 538.42003305 -10.90478516 537.36010742 C-16.64525925 535.57045445 -22.38613292 533.78209158 -28.12744141 531.99511719 C-29.59588631 531.5380455 -31.06433113 531.08097356 -32.53277588 530.62390137 C-33.26504646 530.39597397 -33.99731705 530.16804657 -34.75177765 529.93321228 C-45.2796081 526.65625952 -55.80695306 523.37778931 -66.33115673 520.08920383 C-69.90123961 518.97377508 -73.47176166 517.85980863 -77.04354858 516.74984741 C-124.91345235 501.87139719 -124.91345235 501.87139719 -144.359375 493.30078125 C-145.51800049 492.79627441 -146.67662598 492.29176758 -147.87036133 491.77197266 C-178.97995951 478.09123279 -208.44737547 461.05988546 -233.33203125 437.703125 C-235.44148564 435.74279257 -237.57383442 433.87773442 -239.796875 432.05078125 C-242.8418155 429.46586773 -245.43016806 426.62911266 -248.00390625 423.578125 C-249.40824383 421.91895693 -250.84701153 420.28865616 -252.30859375 418.6796875 C-294.85774969 370.78803665 -313.89610102 307.70342899 -310.51953125 244.4140625 C-306.06190271 177.96387863 -273.54487169 121.06376746 -223.98046875 77.54296875 C-221.36379329 75.36695548 -218.70229559 73.28629184 -215.984375 71.23828125 C-215.45231445 70.82980957 -214.92025391 70.42133789 -214.37207031 70.00048828 C-154.001521 23.73920333 -75.70469084 0.4653318 0 0 Z " fill="#FEFEFE" transform="translate(2537.984375,599.76171875)"/>
<path d="M0 0 C0.67948071 -0.00044186 1.35896141 -0.00088371 2.05903244 -0.00133896 C154.52123836 -0.05312592 154.52123836 -0.05312592 199.4375 39.5 C210.48889449 51.61823703 211.54952431 72.07419414 211.67578125 87.703125 C211.6855751 88.70385544 211.69536896 89.70458588 211.70545959 90.73564148 C211.89500644 115.21242567 211.10143534 139.04437946 207.4375 163.25 C207.22632698 164.68065332 207.01522719 166.11131746 206.80419922 167.54199219 C196.01655945 239.71575926 172.96256195 309.57089078 141.4375 375.25 C141.01694336 376.12962402 140.59638672 377.00924805 140.16308594 377.91552734 C128.32964598 402.52402303 114.98571464 427.81334842 98.42578125 449.5859375 C95.81430751 453.08500448 93.38720943 456.69918898 90.9375 460.3125 C87.32844342 465.60353053 83.61588138 470.72403588 79.546875 475.67578125 C76.8776509 478.93322326 74.28323407 482.24639809 71.6875 485.5625 C70.34793366 487.27213561 69.00795214 488.98133492 67.66210938 490.68603516 C66.50257531 492.16689146 65.36767911 493.66694363 64.234375 495.16796875 C63.34492188 496.19857422 63.34492188 496.19857422 62.4375 497.25 C61.7775 497.25 61.1175 497.25 60.4375 497.25 C60.0971875 498.054375 60.0971875 498.054375 59.75 498.875 C57.98179911 502.07460161 55.90079797 504.54037223 53.4375 507.25 C52.7775 507.25 52.1175 507.25 51.4375 507.25 C51.19128906 507.82073242 50.94507812 508.39146484 50.69140625 508.97949219 C49.22851003 511.6284281 47.51104681 513.43548546 45.375 515.578125 C44.57835938 516.37734375 43.78171875 517.1765625 42.9609375 518 C42.12820313 518.825 41.29546875 519.65 40.4375 520.5 C39.60476563 521.34046875 38.77203125 522.1809375 37.9140625 523.046875 C36.71910156 524.23796875 36.71910156 524.23796875 35.5 525.453125 C34.76910156 526.18176758 34.03820313 526.91041016 33.28515625 527.66113281 C31.4375 529.25 31.4375 529.25 29.4375 529.25 C29.4375 529.91 29.4375 530.57 29.4375 531.25 C27.7578125 532.9765625 27.7578125 532.9765625 25.5625 534.875 C24.84320312 535.50664062 24.12390625 536.13828125 23.3828125 536.7890625 C21.4375 538.25 21.4375 538.25 19.4375 538.25 C19.4375 538.91 19.4375 539.57 19.4375 540.25 C17.32660133 541.97355026 15.22564449 543.56191515 13 545.125 C12.04299194 545.80163696 12.04299194 545.80163696 11.06665039 546.49194336 C2.52915445 552.40815535 -5.91460627 556.38361606 -16.5625 555.25 C-21.16351123 553.71632959 -24.65874085 552.19081599 -27.5625 548.25 C-31.12838444 541.02945392 -31.02089307 534.33723804 -28.82495117 526.67724609 C-27.86375188 523.92275681 -26.82488023 521.21214407 -25.75 518.5 C-25.35184082 517.46689697 -24.95368164 516.43379395 -24.54345703 515.36938477 C-21.16648684 506.65514489 -17.67072627 497.98681188 -14.18502808 489.31561279 C-1.28397265 457.22115736 10.85106131 424.8412493 22.4375 392.25 C22.74407532 391.38804016 23.05065063 390.52608032 23.36651611 389.63800049 C68.28608416 275.06970422 68.28608416 275.06970422 63.4375 157.25 C62.19736756 154.84144346 60.84724721 152.56601327 59.4375 150.25 C59.4375 149.59 59.4375 148.93 59.4375 148.25 C58.7775 148.25 58.1175 148.25 57.4375 148.25 C56.756875 147.54875 56.07625 146.8475 55.375 146.125 C29.65292674 119.73385547 -23.41038102 119.4892102 -57.62335491 118.92092514 C-66.03444656 118.8137198 -74.44549384 118.82294201 -82.85700607 118.86307526 C-85.5527928 118.87523819 -88.24856044 118.88263293 -90.94436646 118.88909912 C-119.11764616 118.96668804 -147.14013965 119.64318528 -175.22894287 121.97460938 C-178.79221086 122.26897679 -182.35622745 122.55287038 -185.92041016 122.8359375 C-222.88077393 125.79690089 -259.71754221 129.68946844 -296.53765678 134.05240631 C-299.83387511 134.4426744 -303.13047622 134.82965758 -306.42708206 135.21663666 C-308.68818521 135.48395581 -310.94850231 135.75729547 -313.20883179 136.03106689 C-335.49413961 138.68492098 -335.49413961 138.68492098 -344.875 133.375 C-349.66315775 129.5890148 -351.26590229 126.51155757 -352.0625 120.4375 C-352.0625 113.37562075 -347.90848833 107.25058621 -344.5625 101.25 C-343.9025 101.25 -343.2425 101.25 -342.5625 101.25 C-342.34464844 100.6828125 -342.12679687 100.115625 -341.90234375 99.53125 C-333.23388614 84.77212683 -307.35895431 74.30188193 -292.74023438 66.42480469 C-290.60793318 65.27450947 -288.48346608 64.11068146 -286.359375 62.9453125 C-267.48613584 52.67374064 -247.73842223 44.58844085 -227.5625 37.25 C-226.35029785 36.80897949 -225.1380957 36.36795898 -223.88916016 35.91357422 C-167.84878938 15.71001421 -107.94739888 4.91029077 -48.5625 1.25 C-47.29237061 1.16459961 -46.02224121 1.07919922 -44.71362305 0.99121094 C-29.82011095 0.0521507 -14.91862618 0.00446182 0 0 Z " fill="#FE9900" transform="translate(2788.5625,1723.75)"/>
<path d="M0 0 C0 3 0 3 -2.29492188 5.63549805 C-3.3451977 6.6852984 -4.40374234 7.72686669 -5.46875 8.76171875 C-6.02365112 9.31237503 -6.57855225 9.86303131 -7.15026855 10.43037415 C-8.92660687 12.18990125 -10.7130848 13.93872165 -12.5 15.6875 C-13.70510885 16.87756521 -14.90954483 18.06831223 -16.11328125 19.25976562 C-19.06776708 22.18114979 -22.03138969 25.09297256 -25 28 C-25.66 27.67 -26.32 27.34 -27 27 C-26.25556641 26.27296875 -26.25556641 26.27296875 -25.49609375 25.53125 C-22.10602058 22.18620627 -18.81101807 18.83804748 -15.75 15.1875 C-10.99158854 9.63047403 -5.44633136 4.86503163 0 0 Z " fill="#D7D4D1" transform="translate(214,1066)"/>
<path d="M0 0 C0.66 0.33 1.32 0.66 2 1 C-1.3 4.3 -4.6 7.6 -8 11 C-8 6.67750434 -5.85084926 5.11604454 -3 2 C-2.01 1.34 -1.02 0.68 0 0 Z " fill="#D6D3CF" transform="translate(1995,633)"/>
<path d="M0 0 C0.66 0.33 1.32 0.66 2 1 C-0.97 3.97 -3.94 6.94 -7 10 C-7.66 9.67 -8.32 9.34 -9 9 C-6.21000549 5.51250686 -3.74764169 2.49842779 0 0 Z " fill="#D5D2D0" transform="translate(1465,633)"/>
</svg>
