<?xml version="1.0" encoding="UTF-8"?>
<svg version="1.1" xmlns="http://www.w3.org/2000/svg" width="500" height="500">
<path d="M0 0 C2.44206696 2.24417533 4.74418152 4.57065702 7 7 C7.825 7.825 8.65 8.65 9.5 9.5 C10.325 10.325 11.15 11.15 12 12 C12.49886719 12.4640625 12.99773437 12.928125 13.51171875 13.40625 C43.38185034 41.81420732 58.66240122 85.54432482 60 126 C60.17382047 145.74414311 58.25148567 165.20508031 52 184 C51.7736084 184.69496582 51.5472168 185.38993164 51.31396484 186.10595703 C36.58999193 230.72494029 4.65499868 266.90717421 -37.1484375 288.17578125 C-58.0824726 298.37233323 -58.0824726 298.37233323 -65.6875 296.25 C-68.6066981 294.67205508 -70.54151178 293.44040485 -71.57301331 290.19979858 C-72.03914655 287.79832037 -72.10590219 285.62430712 -72.08178711 283.17822266 C-72.0752562 282.22267487 -72.06872528 281.26712708 -72.06199646 280.28262329 C-72.04484337 278.7389357 -72.04484337 278.7389357 -72.02734375 277.1640625 C-72.01468247 274.96224124 -72.00232264 272.76041823 -71.99023438 270.55859375 C-71.96557809 267.10524977 -71.93776356 263.65199835 -71.90405273 260.19873047 C-70.93387213 233.46056455 -70.93387213 233.46056455 -82 210 C-82 209.01 -82 208.02 -82 207 C-81.2471875 206.82984375 -80.494375 206.6596875 -79.71875 206.484375 C-77.44247215 205.96503005 -75.16788271 205.43825858 -72.89453125 204.90625 C-70.31259847 204.30543916 -67.72658547 203.72188318 -65.13671875 203.15625 C-51.55165089 200.09922951 -38.40000388 195.58390699 -28 186 C-27.32839844 185.43023437 -26.65679687 184.86046875 -25.96484375 184.2734375 C-13.65693688 173.12754882 -6.65424386 154.89356733 -5.82299805 138.51171875 C-5.76800965 135.08009232 -5.72342426 131.6492773 -5.70483398 128.21728516 C-5.69338919 126.75331906 -5.67305805 125.28939217 -5.64331055 123.82568359 C-5.33017701 108.36493365 -8.04410533 95.21411805 -17.7890625 82.703125 C-18.35367187 81.95546875 -18.91828125 81.2078125 -19.5 80.4375 C-20.0259375 79.79683594 -20.551875 79.15617187 -21.09375 78.49609375 C-22.32792104 75.09680368 -21.45520008 72.95048203 -20.55957031 69.51782227 C-19.58304442 65.12388183 -19.61872851 60.73490193 -19.625 56.25 C-19.62306641 54.81116455 -19.62306641 54.81116455 -19.62109375 53.34326172 C-19.73537872 45.6355196 -20.97996038 39.14562945 -24 32 C-37.615049 30.91079608 -49.2854431 37.32665299 -60.84765625 43.66015625 C-61.58250244 44.06024902 -62.31734863 44.4603418 -63.07446289 44.87255859 C-65.14973904 46.02343209 -65.14973904 46.02343209 -67.375 47.91796875 C-71.89277824 49.7802077 -76.27935003 48.23619336 -80.9375 47.25 C-83.01466363 46.84915241 -85.09279676 46.4532956 -87.171875 46.0625 C-88.17541016 45.87300781 -89.17894531 45.68351562 -90.21289062 45.48828125 C-95.78699089 44.51173951 -101.34524489 44.16803536 -107 44 C-107.91523438 43.96003906 -108.83046875 43.92007813 -109.7734375 43.87890625 C-121.98405153 43.58817734 -134.74252802 44.62902843 -146.61401367 47.52099609 C-152.33142161 48.8828456 -156.19056773 49.60595858 -161.4375 46.6875 C-162.29214844 46.11773437 -163.14679688 45.54796875 -164.02734375 44.9609375 C-167.70133355 42.53735947 -171.51979874 40.67667238 -175.5 38.8125 C-176.23331543 38.46856201 -176.96663086 38.12462402 -177.72216797 37.77026367 C-186.05744473 33.9442503 -193.76051114 31.47701006 -203 32 C-203.48509793 33.37291868 -203.96275513 34.74846703 -204.4375 36.125 C-204.70433594 36.89070313 -204.97117187 37.65640625 -205.24609375 38.4453125 C-206.98936783 44.35257284 -207.1875 50.07907154 -207.1875 56.1875 C-207.19394531 57.03248047 -207.20039063 57.87746094 -207.20703125 58.74804688 C-207.19264878 63.43313655 -206.79276881 67.46546576 -205.5 72 C-204.74788858 75.3949474 -204.75471805 76.54809468 -206.4375 79.6484375 C-207.83777736 81.49956173 -209.27995274 83.31957944 -210.7578125 85.109375 C-223.15194671 101.08787555 -223.08964153 122.03688204 -220.71875 141.16796875 C-218.57710918 156.43317547 -213.6328399 170.58914742 -203 182 C-203 182.66 -203 183.32 -203 184 C-202.44441406 184.25136719 -201.88882813 184.50273437 -201.31640625 184.76171875 C-198.62190728 186.20211702 -196.35791385 187.94817534 -193.9375 189.8125 C-180.99018579 199.29576458 -166.05658607 202.88398079 -150.45703125 205.38671875 C-147 206 -147 206 -145 207 C-145.62078492 210.17214274 -146.20102233 211.25535269 -148.3125 213.9375 C-151.55434625 218.21338342 -152.61289604 222.96815943 -153.91015625 228.109375 C-155.12982685 231.34434362 -156.03494455 232.3175809 -159 234 C-168.47423725 237.39642468 -180.24386352 237.49951427 -189.734375 234.08984375 C-197.53423601 230.33784164 -202.24015609 224.71872769 -207.1015625 217.71484375 C-212.38946322 210.15292811 -218.05368351 203.9821055 -227 201 C-229.06145107 200.931009 -231.12501401 200.91532273 -233.1875 200.9375 C-234.27417969 200.94652344 -235.36085937 200.95554687 -236.48046875 200.96484375 C-237.31191406 200.97644531 -238.14335937 200.98804688 -239 201 C-236.60447199 205.24661783 -233.89691968 208.07130399 -230.1875 211.25 C-223.22331038 217.39966452 -218.87643811 224.18398985 -214.7175293 232.41137695 C-209.20647889 243.27155935 -204.52774994 249.30769539 -192.61328125 253.2734375 C-186.88139138 254.86705711 -181.67248426 255.15280509 -175.75 255.125 C-174.53763672 255.13080078 -174.53763672 255.13080078 -173.30078125 255.13671875 C-168.38639148 255.12885573 -163.67772436 254.7895455 -158.82128906 254.01904297 C-158.22026367 254.01275879 -157.61923828 254.00647461 -157 254 C-154.55860342 256.44139658 -154.74578384 257.79505288 -154.69645691 261.12971497 C-154.69782402 262.17345528 -154.69782402 262.17345528 -154.69921875 263.23828125 C-154.69493362 263.95606247 -154.6906485 264.67384369 -154.68623352 265.41337585 C-154.68048621 266.93402044 -154.67999292 268.45469252 -154.68432617 269.9753418 C-154.68747391 272.29328953 -154.66407703 274.6099457 -154.63867188 276.92773438 C-154.63639756 278.40624839 -154.635696 279.88476584 -154.63671875 281.36328125 C-154.627509 282.05303543 -154.61829926 282.74278961 -154.60881042 283.45344543 C-154.65032056 287.81086904 -155.3212392 290.54420607 -158 294 C-162.09914231 296.73276154 -165.27279815 296.70364304 -170 296 C-187.87292304 290.90491307 -204.37665843 281.29818476 -219 270 C-219.88171875 269.34128906 -220.7634375 268.68257813 -221.671875 268.00390625 C-236.07969303 256.80510224 -249.0654197 243.31325294 -259 228 C-259.40009277 227.38560059 -259.80018555 226.77120117 -260.21240234 226.13818359 C-285.13851554 187.34067327 -293.58076956 139.93754262 -284.07543945 94.86376953 C-277.20310474 64.04605992 -263.26524903 37.06690186 -241.71484375 13.92578125 C-239.94436061 12.10607431 -239.94436061 12.10607431 -239 10 C-238.34 10 -237.68 10 -237 10 C-237 9.34 -237 8.68 -237 8 C-235.671875 6.625 -235.671875 6.625 -233.75 5 C-233.01523438 4.37867188 -232.28046875 3.75734375 -231.5234375 3.1171875 C-230.69070312 2.41851562 -229.85796875 1.71984375 -229 1 C-227.65808594 -0.17175781 -227.65808594 -0.17175781 -226.2890625 -1.3671875 C-202.86031867 -21.52972575 -174.33700772 -34.53534877 -144 -40 C-142.78054687 -40.22558594 -141.56109375 -40.45117188 -140.3046875 -40.68359375 C-89.61754702 -48.48575444 -38.84137193 -32.84717593 0 0 Z " fill="#FCFBFB" transform="translate(365,117)"/>
<path d="M0 0 C1.65322266 0.01740234 1.65322266 0.01740234 3.33984375 0.03515625 C4.99693359 0.04869141 4.99693359 0.04869141 6.6875 0.0625 C7.54214844 0.07410156 8.39679688 0.08570313 9.27734375 0.09765625 C9.27734375 0.42765625 9.27734375 0.75765625 9.27734375 1.09765625 C3.33734375 1.59265625 3.33734375 1.59265625 -2.72265625 2.09765625 C-0.34086362 5.84047324 2.0221011 9.07493093 5.27734375 12.09765625 C0.8599058 10.70931861 -1.80605005 8.70052273 -4.72265625 5.09765625 C-4.51380165 1.3382735 -3.78267531 0.13567702 0 0 Z " fill="#CAC3C5" transform="translate(128.72265625,315.90234375)"/>
<path d="M0 0 C4.61513112 1.31860889 8.09897612 3.21355437 12 6 C11.01 6.495 11.01 6.495 10 7 C9.01 6.67 8.02 6.34 7 6 C6.01 6 5.02 6 4 6 C3.67 5.01 3.34 4.02 3 3 C1.50014391 1.33289654 1.50014391 1.33289654 0 0 Z " fill="#DBDADD" transform="translate(333,96)"/>
<path d="M0 0 C4.29 0.33 8.58 0.66 13 1 C12.67 1.66 12.34 2.32 12 3 C7.53160785 3.21278058 4.17737474 2.59138085 0 1 C0 0.67 0 0.34 0 0 Z " fill="#DED9DB" transform="translate(267,76)"/>
<path d="" fill="#000000" transform="translate(0,0)"/>
<path d="" fill="#000000" transform="translate(0,0)"/>
<path d="" fill="#000000" transform="translate(0,0)"/>
<path d="" fill="#000000" transform="translate(0,0)"/>
<path d="" fill="#000000" transform="translate(0,0)"/>
<path d="" fill="#000000" transform="translate(0,0)"/>
<path d="" fill="#000000" transform="translate(0,0)"/>
<path d="" fill="#000000" transform="translate(0,0)"/>
<path d="" fill="#000000" transform="translate(0,0)"/>
<path d="" fill="#000000" transform="translate(0,0)"/>
<path d="" fill="#000000" transform="translate(0,0)"/>
<path d="" fill="#000000" transform="translate(0,0)"/>
<path d="" fill="#000000" transform="translate(0,0)"/>
<path d="" fill="#000000" transform="translate(0,0)"/>
<path d="" fill="#000000" transform="translate(0,0)"/>
<path d="" fill="#000000" transform="translate(0,0)"/>
<path d="" fill="#000000" transform="translate(0,0)"/>
<path d="" fill="#000000" transform="translate(0,0)"/>
<path d="" fill="#000000" transform="translate(0,0)"/>
<path d="" fill="#000000" transform="translate(0,0)"/>
<path d="" fill="#000000" transform="translate(0,0)"/>
<path d="" fill="#000000" transform="translate(0,0)"/>
<path d="" fill="#000000" transform="translate(0,0)"/>
<path d="" fill="#000000" transform="translate(0,0)"/>
<path d="" fill="#000000" transform="translate(0,0)"/>
<path d="" fill="#000000" transform="translate(0,0)"/>
<path d="" fill="#000000" transform="translate(0,0)"/>
<path d="" fill="#000000" transform="translate(0,0)"/>
<path d="" fill="#000000" transform="translate(0,0)"/>
<path d="" fill="#000000" transform="translate(0,0)"/>
<path d="" fill="#000000" transform="translate(0,0)"/>
<path d="" fill="#000000" transform="translate(0,0)"/>
<path d="" fill="#000000" transform="translate(0,0)"/>
<path d="" fill="#000000" transform="translate(0,0)"/>
<path d="" fill="#000000" transform="translate(0,0)"/>
<path d="" fill="#000000" transform="translate(0,0)"/>
<path d="" fill="#000000" transform="translate(0,0)"/>
<path d="" fill="#000000" transform="translate(0,0)"/>
<path d="" fill="#000000" transform="translate(0,0)"/>
<path d="" fill="#000000" transform="translate(0,0)"/>
<path d="" fill="#000000" transform="translate(0,0)"/>
<path d="" fill="#000000" transform="translate(0,0)"/>
<path d="" fill="#000000" transform="translate(0,0)"/>
<path d="" fill="#000000" transform="translate(0,0)"/>
<path d="" fill="#000000" transform="translate(0,0)"/>
<path d="" fill="#000000" transform="translate(0,0)"/>
<path d="" fill="#000000" transform="translate(0,0)"/>
<path d="" fill="#000000" transform="translate(0,0)"/>
<path d="" fill="#000000" transform="translate(0,0)"/>
<path d="" fill="#000000" transform="translate(0,0)"/>
<path d="" fill="#000000" transform="translate(0,0)"/>
<path d="" fill="#000000" transform="translate(0,0)"/>
<path d="" fill="#000000" transform="translate(0,0)"/>
<path d="" fill="#000000" transform="translate(0,0)"/>
<path d="" fill="#000000" transform="translate(0,0)"/>
<path d="" fill="#000000" transform="translate(0,0)"/>
<path d="" fill="#000000" transform="translate(0,0)"/>
<path d="" fill="#000000" transform="translate(0,0)"/>
<path d="" fill="#000000" transform="translate(0,0)"/>
<path d="" fill="#000000" transform="translate(0,0)"/>
<path d="" fill="#000000" transform="translate(0,0)"/>
<path d="" fill="#000000" transform="translate(0,0)"/>
<path d="" fill="#000000" transform="translate(0,0)"/>
<path d="" fill="#000000" transform="translate(0,0)"/>
<path d="" fill="#000000" transform="translate(0,0)"/>
<path d="" fill="#000000" transform="translate(0,0)"/>
<path d="" fill="#000000" transform="translate(0,0)"/>
<path d="" fill="#000000" transform="translate(0,0)"/>
<path d="" fill="#000000" transform="translate(0,0)"/>
<path d="" fill="#000000" transform="translate(0,0)"/>
<path d="" fill="#000000" transform="translate(0,0)"/>
<path d="" fill="#000000" transform="translate(0,0)"/>
<path d="" fill="#000000" transform="translate(0,0)"/>
<path d="" fill="#000000" transform="translate(0,0)"/>
</svg>
